<svg width="11" height="7" viewBox="0 0 11 7" fill="none" xmlns="http://www.w3.org/2000/svg">
<path d="M11 1.64C10.9995 1.77471 10.9718 1.90792 10.9185 2.03164C10.8652 2.15537 10.7875 2.26706 10.69 2.36L6.69 6.22C6.50307 6.40323 6.25175 6.50586 5.99 6.50586C5.72825 6.50586 5.47693 6.40323 5.29 6.22L1.29 2.22C1.19676 2.12676 1.1228 2.01607 1.07234 1.89425C1.02188 1.77243 0.995911 1.64186 0.995911 1.51C0.995911 1.37814 1.02188 1.24757 1.07234 1.12575C1.1228 1.00393 1.19676 0.89324 1.29 0.800002C1.38324 0.706764 1.49393 0.632802 1.61575 0.582342C1.73758 0.531882 1.86814 0.50591 2 0.50591C2.13186 0.50591 2.26243 0.531882 2.38425 0.582342C2.50607 0.632802 2.61676 0.706764 2.71 0.800002L6 4.1L9.3 0.920002C9.48737 0.733751 9.74082 0.62921 10.005 0.62921C10.2692 0.62921 10.5226 0.733751 10.71 0.920002C10.8039 1.01463 10.8779 1.12707 10.9277 1.25072C10.9775 1.37436 11.0021 1.50672 11 1.64Z" fill="white"/>
</svg>
